<svg width="45" height="58" viewBox="0 0 45 58" fill="none" xmlns="http://www.w3.org/2000/svg">
<path d="M41.6923 33.9776C35.5503 26.3348 20.5986 22.6665 18.5422 13.7456C17.792 10.5218 19.6538 3.0741 24.5449 0.961914C5.23053 0.961914 -2.0231 20.8047 0.478239 30.0589C1.91613 29.125 3.52439 28.4846 5.21061 28.1742C6.89682 27.8639 8.62773 27.8899 10.3039 28.2506C11.98 28.6113 13.5684 29.2998 14.9776 30.2763C16.3869 31.2528 17.5892 32.4982 18.5156 33.9409C19.4421 35.3836 20.0742 36.9952 20.3759 38.683C20.6775 40.3708 20.6426 42.1015 20.2732 43.7758C19.9038 45.45 19.2072 47.0348 18.2234 48.439C17.2396 49.8432 15.988 51.0391 14.5405 51.9581C22.9888 57.1548 33.6608 59.1835 39.9692 54.0144C47.1112 48.2345 45.6662 38.9244 41.6923 33.9776Z" fill="url(#paint0_linear_1007_738)"/>
<path d="M18.5423 13.7733C19.7098 18.8599 25.1288 22.2497 30.687 25.64C22.7657 18.3034 21.6269 6.82586 24.5436 0.961914C19.6545 3.0741 17.7917 10.5218 18.5423 13.7733Z" fill="url(#paint1_linear_1007_738)"/>
<path d="M20.5149 41.4258C20.5149 41.0089 20.5149 40.564 20.4872 40.1472C20.319 37.6246 19.4102 35.2078 17.8748 33.1992C17.6249 32.8659 17.3469 32.5321 17.0688 32.2264C16.7908 31.9207 16.4851 31.615 16.1799 31.3374C15.6991 30.9111 15.1874 30.5208 14.649 30.17C13.9133 29.686 13.1313 29.2764 12.3146 28.9472C10.3937 28.1789 8.31691 27.8814 6.25764 28.0797C4.19837 28.278 2.21646 28.9663 0.477539 30.087C10.1485 34.0057 15.6238 41.4534 14.5398 52.0138C16.8172 50.5476 18.5842 48.4117 19.5978 45.9C20.139 44.4667 20.4485 42.9564 20.5149 41.4258Z" fill="url(#paint2_linear_1007_738)"/>
<path opacity="0.5" d="M20.4858 40.1477C20.3175 37.6252 19.4087 35.2083 17.8733 33.1998C17.6234 32.8665 17.3454 32.5326 17.0674 32.2269C16.7893 31.9212 16.4836 31.6155 16.1784 31.338C15.6976 30.9116 15.1859 30.5214 14.6475 30.1706C13.9132 29.6869 13.1327 29.2773 12.3175 28.9478C9.34451 27.7644 6.04026 27.715 3.0332 28.809C5.29126 28.5742 7.57242 28.8986 9.67545 29.7537C10.5653 30.1029 11.4136 30.5501 12.2044 31.0871C12.7899 31.4731 13.3471 31.9004 13.8717 32.3657C14.205 32.6714 14.5389 33.0047 14.8445 33.3386C15.155 33.671 15.4429 34.0237 15.7063 34.3944C17.3592 36.5758 18.3353 39.1945 18.5133 41.9256C18.5503 42.3785 18.5596 42.8332 18.541 43.2871C18.4927 44.9451 18.1541 46.5818 17.5405 48.1229C17.1554 49.0842 16.6611 49.998 16.0673 50.8464C17.4123 49.6704 18.4992 48.2287 19.2597 46.6121C20.0202 44.9955 20.4378 43.2389 20.4863 41.453C20.5139 41.0183 20.5137 40.5824 20.4858 40.1477Z" fill="url(#paint3_linear_1007_738)"/>
<g opacity="0.5">
<path d="M41.6925 33.9778C35.5505 26.335 20.5988 22.6667 18.5424 13.7458C17.7922 10.522 19.6541 3.07428 24.5461 0.9621C22.5918 0.954683 20.6429 1.16907 18.737 1.60114C14.7368 4.29705 13.2059 10.8 13.9012 13.7458C15.9576 22.639 30.9093 26.3073 37.0513 33.9778C41.0253 38.9246 42.4703 48.2346 35.3283 54.0428C33.2781 55.6558 30.8098 56.6495 28.2139 56.9071C32.6585 57.3797 36.8291 56.6014 39.9675 54.0428C47.1115 48.2346 45.6665 38.9246 41.6925 33.9778Z" fill="url(#paint4_linear_1007_738)"/>
</g>
<path d="M0.366211 22.1661C5.17381 19.7774 13.9282 13.9677 19.7364 1.40625C8.09196 3.60189 1.86701 13.6621 0.366211 22.1661Z" fill="url(#paint5_linear_1007_738)"/>
<path d="M27.7141 32.7528C21.9598 26.0014 2.86712 26.2518 3.1175 14.1348C0.171704 19.7483 -0.632773 25.9461 0.477396 30.0589C1.91529 29.125 3.52355 28.4845 5.20976 28.1742C6.89597 27.8639 8.62689 27.8898 10.303 28.2506C11.9792 28.6113 13.5675 29.2997 14.9768 30.2763C16.386 31.2528 17.5884 32.4982 18.5148 33.9409C19.4412 35.3836 20.0734 36.9951 20.375 38.6829C20.6766 40.3707 20.6417 42.1015 20.2724 43.7757C19.903 45.45 19.2063 47.0348 18.2225 48.439C17.2387 49.8432 15.9872 51.0391 14.5397 51.958C17.7438 53.9489 21.2422 55.4214 24.9056 56.3212C30.3245 51.0691 33.1039 39.0632 27.7141 32.7528Z" fill="url(#paint6_linear_1007_738)"/>
<defs>
<linearGradient id="paint0_linear_1007_738" x1="-4.13786" y1="23.8339" x2="46.7998" y2="23.8339" gradientUnits="userSpaceOnUse">
<stop stop-color="#31D8FF"/>
<stop offset="1" stop-color="#185BC6"/>
</linearGradient>
<linearGradient id="paint1_linear_1007_738" x1="7.33177" y1="0.961914" x2="27.4305" y2="7.19546" gradientUnits="userSpaceOnUse">
<stop stop-color="#1DA4FF"/>
<stop offset="0.183" stop-color="#1DA1FB"/>
<stop offset="0.357" stop-color="#1B98F0"/>
<stop offset="0.527" stop-color="#1988DD"/>
<stop offset="0.695" stop-color="#1672C2"/>
<stop offset="0.86" stop-color="#13569F"/>
<stop offset="1" stop-color="#0F397C"/>
</linearGradient>
<linearGradient id="paint2_linear_1007_738" x1="2.90206" y1="43.0641" x2="22.354" y2="37.9189" gradientUnits="userSpaceOnUse">
<stop stop-color="#1DA4FF"/>
<stop offset="0.146" stop-color="#1C9FF9"/>
<stop offset="0.332" stop-color="#1B93EA"/>
<stop offset="0.539" stop-color="#187DD0"/>
<stop offset="0.762" stop-color="#1460AB"/>
<stop offset="0.994" stop-color="#0F3A7D"/>
<stop offset="1" stop-color="#0F397C"/>
</linearGradient>
<linearGradient id="paint3_linear_1007_738" x1="3.01573" y1="39.4119" x2="20.5068" y2="39.4119" gradientUnits="userSpaceOnUse">
<stop stop-color="#25C9D6"/>
<stop offset="1" stop-color="#1D4799" stop-opacity="0"/>
</linearGradient>
<linearGradient id="paint4_linear_1007_738" x1="13.7393" y1="28.9998" x2="44.9999" y2="28.9998" gradientUnits="userSpaceOnUse">
<stop stop-color="#B6D2FF" stop-opacity="0"/>
<stop offset="1" stop-color="#A4FDFF"/>
</linearGradient>
<linearGradient id="paint5_linear_1007_738" x1="0.366211" y1="11.7862" x2="19.7364" y2="11.7862" gradientUnits="userSpaceOnUse">
<stop stop-color="#B6D2FF" stop-opacity="0"/>
<stop offset="1" stop-color="#A4FDFF"/>
</linearGradient>
<linearGradient id="paint6_linear_1007_738" x1="0" y1="35.228" x2="30.6231" y2="35.228" gradientUnits="userSpaceOnUse">
<stop stop-color="#A6DFFF"/>
<stop offset="0.268" stop-color="#84BCEE" stop-opacity="0.733"/>
<stop offset="0.572" stop-color="#659CDE" stop-opacity="0.427"/>
<stop offset="0.827" stop-color="#5188D5" stop-opacity="0.173"/>
<stop offset="1" stop-color="#4A81D1" stop-opacity="0"/>
</linearGradient>
</defs>
</svg>
